# Blender 4.0.1
# www.blender.org
mtllib rock2.mtl
o rock.003
v -0.463822 -0.474077 0.452339
v 0.383728 -0.379770 0.404315
v -0.000227 0.199892 0.565037
v -0.306678 -0.342988 -0.326052
v 0.378567 -0.339751 -0.381767
v 0.014413 0.200146 -0.503245
v 0.015941 0.367304 0.008995
v -0.001992 -0.669706 -0.000259
v -0.252423 -0.559940 0.567064
v 0.007040 -0.571583 0.598364
v 0.231645 -0.487917 0.518423
v -0.321026 -0.192423 0.522618
v -0.205687 -0.003935 0.546620
v -0.097278 0.125560 0.565813
v -0.511403 -0.482151 0.219215
v -0.578916 -0.489583 -0.005433
v -0.482771 -0.434409 -0.211288
v -0.159851 -0.378344 -0.412174
v -0.001247 -0.417999 -0.500589
v 0.198925 -0.402917 -0.493076
v -0.264923 -0.165883 -0.451197
v -0.179109 -0.001517 -0.500769
v -0.073501 0.127224 -0.509627
v 0.437094 -0.141001 0.321392
v 0.307813 0.023106 0.199039
v 0.209605 0.183583 0.104410
v -0.334414 -0.619086 0.322930
v -0.207613 -0.626903 0.207882
v -0.105691 -0.661094 0.106659
v 0.306960 -0.175028 0.505771
v 0.217022 0.006104 0.569491
v 0.095106 0.125870 0.565023
v 0.325041 -0.542046 -0.328190
v 0.205124 -0.600864 -0.209940
v 0.102022 -0.635891 -0.104771
v 0.518753 -0.423669 0.224244
v 0.591169 -0.438247 0.000542
v 0.543748 -0.408137 -0.222154
v -0.452072 -0.164773 0.328301
v -0.338763 0.033991 0.200572
v -0.218320 0.208883 0.095044
v 0.009988 0.326120 -0.451079
v 0.003798 0.433778 -0.308102
v 0.006681 0.420440 -0.140123
v 0.340535 -0.561321 0.337743
v 0.221681 -0.639291 0.223811
v 0.109248 -0.688158 0.111582
v 0.001101 0.304706 0.487508
v 0.002502 0.371403 0.329587
v 0.011077 0.385711 0.169167
v -0.391615 -0.141321 -0.289705
v -0.262633 0.010056 -0.184965
v -0.174443 0.173924 -0.097640
v 0.251122 -0.152934 -0.431354
v 0.152439 -0.015873 -0.434920
v 0.088414 0.113915 -0.479708
v -0.268155 -0.471286 -0.271283
v -0.196257 -0.542846 -0.198481
v -0.104435 -0.602476 -0.103411
v 0.365658 -0.140921 -0.280413
v 0.318154 0.037121 -0.194110
v 0.224632 0.201139 -0.093159
v 0.005796 -0.166964 0.661981
v -0.191552 -0.282367 0.642862
v 0.004641 -0.311719 0.640123
v 0.172732 -0.272306 0.564453
v 0.111024 -0.097933 0.636742
v 0.000375 0.029512 0.627291
v -0.102866 -0.097962 0.627718
v 0.007410 -0.676394 0.334149
v -0.182149 -0.645946 0.399589
v -0.097310 -0.637995 0.287234
v 0.002596 -0.666808 0.203529
v 0.110816 -0.647544 0.296766
v 0.196540 -0.596887 0.406975
v 0.009635 -0.652478 0.424029
v -0.330661 -0.642097 -0.006714
v -0.383005 -0.543995 -0.171004
v -0.280894 -0.597913 -0.103679
v -0.198936 -0.659341 -0.007265
v -0.288510 -0.650853 0.097247
v -0.419784 -0.611295 0.178572
v -0.447746 -0.620046 -0.009745
v -0.003364 -0.557108 -0.334397
v -0.147182 -0.471042 -0.352751
v -0.004273 -0.516167 -0.420630
v 0.176519 -0.552068 -0.423844
v 0.096260 -0.595312 -0.296393
v -0.001245 -0.592121 -0.195471
v -0.092390 -0.534491 -0.278031
v 0.350985 -0.676113 -0.001766
v 0.441594 -0.587233 0.197412
v 0.304674 -0.669666 0.113608
v 0.199571 -0.667465 0.002135
v 0.293449 -0.644230 -0.107946
v 0.434884 -0.579431 -0.192320
v 0.499243 -0.624730 -0.003286
v 0.007033 -0.155519 -0.546887
v -0.151238 -0.252167 -0.513595
v -0.083800 -0.097577 -0.538004
v 0.016734 0.018826 -0.531009
v 0.092895 -0.093690 -0.506040
v 0.149603 -0.237249 -0.492522
v 0.001526 -0.281050 -0.561379
v 0.241340 0.188339 0.355857
v 0.359058 -0.014870 0.408380
v 0.274595 0.119001 0.285231
v 0.181336 0.265696 0.210177
v 0.166428 0.303409 0.341689
v 0.141556 0.232903 0.472012
v 0.257780 0.117913 0.455504
v 0.423623 -0.110640 0.004473
v 0.488500 -0.217527 0.173822
v 0.518528 -0.238407 0.004090
v 0.477482 -0.205469 -0.160630
v 0.379747 -0.046100 -0.087810
v 0.275941 0.074590 0.005116
v 0.368650 -0.055025 0.096196
v 0.192694 0.167587 -0.326527
v 0.256848 -0.038609 -0.349592
v 0.182302 0.083513 -0.384149
v 0.128460 0.227228 -0.420868
v 0.159485 0.311032 -0.319021
v 0.191529 0.289035 -0.195738
v 0.245214 0.110371 -0.276447
v -0.253098 0.192795 0.362562
v -0.341120 -0.037354 0.403592
v -0.248663 0.104953 0.450014
v -0.134360 0.224683 0.466616
v -0.179924 0.331238 0.352596
v -0.206428 0.311065 0.203904
v -0.287694 0.123121 0.288981
v -0.423837 -0.111638 -0.003428
v -0.525267 -0.228308 0.179785
v -0.385546 -0.052495 0.091979
v -0.252771 0.065761 -0.002454
v -0.343989 -0.062277 -0.090131
v -0.457514 -0.222265 -0.163487
v -0.558300 -0.236045 -0.005624
v -0.221662 0.183144 -0.331929
v -0.295633 -0.029199 -0.362169
v -0.235346 0.106904 -0.267144
v -0.173420 0.277455 -0.190976
v -0.161454 0.319223 -0.317905
v -0.125773 0.242292 -0.438141
v -0.216698 0.104261 -0.414556
vn -0.1006 0.0072 0.9949
vn 0.4047 -0.1873 0.8950
vn -0.0415 0.1726 0.9841
vn -0.5700 -0.0070 0.8216
vn -0.0796 -0.2047 0.9756
vn -0.5078 0.2583 0.8219
vn 0.5673 -0.1035 0.8170
vn 0.5258 -0.0989 0.8448
vn 0.3973 -0.1168 0.9102
vn 0.0033 0.3432 0.9393
vn -0.3881 0.2550 0.8856
vn 0.2762 0.3111 0.9094
vn -0.1534 -0.9880 0.0153
vn -0.0424 -0.9965 -0.0716
vn 0.3091 -0.9276 0.2098
vn -0.4399 -0.8278 0.3483
vn -0.0921 -0.9920 -0.0863
vn -0.0884 -0.9024 0.4218
vn -0.1253 -0.9920 0.0169
vn 0.1024 -0.9718 0.2123
vn -0.1822 -0.9742 0.1331
vn 0.6175 -0.5252 0.5855
vn 0.3806 -0.7896 0.4813
vn 0.2998 -0.9195 0.2540
vn -0.1500 -0.8692 -0.4712
vn -0.1265 -0.9580 -0.2572
vn -0.2244 -0.9730 0.0538
vn -0.3118 -0.5033 -0.8059
vn -0.0841 -0.7920 -0.6047
vn -0.5911 -0.6419 -0.4885
vn -0.0411 -0.9623 -0.2688
vn -0.0628 -0.9872 0.1463
vn -0.0213 -0.8537 -0.5204
vn -0.6780 -0.6950 0.2393
vn -0.7276 -0.6580 0.1940
vn -0.0894 -0.9886 0.1210
vn -0.4399 -0.8153 -0.3766
vn -0.1832 -0.8896 -0.4185
vn -0.3188 -0.9202 -0.2271
vn -0.5087 -0.4853 -0.7112
vn -0.5033 -0.5261 -0.6855
vn -0.3130 -0.8191 -0.4808
vn 0.5527 -0.3788 -0.7423
vn 0.1879 -0.9518 -0.2423
vn -0.0185 -0.5150 -0.8570
vn -0.1511 -0.9184 -0.3656
vn -0.2226 -0.9032 -0.3670
vn -0.0558 -0.9771 -0.2052
vn 0.3541 -0.9034 0.2420
vn -0.0595 -0.9921 -0.1109
vn 0.2601 -0.9025 -0.3434
vn 0.6925 -0.4034 0.5981
vn 0.2561 -0.8857 0.3872
vn 0.8444 -0.4352 0.3122
vn 0.0136 -0.9718 -0.2352
vn -0.0465 -0.9527 -0.3004
vn 0.0924 -0.9889 0.1165
vn 0.5891 -0.4114 -0.6955
vn 0.8191 -0.4823 -0.3107
vn 0.1156 -0.9073 -0.4043
vn -0.2189 0.0225 -0.9755
vn 0.1757 0.0796 -0.9812
vn 0.3941 0.0783 -0.9157
vn -0.5894 -0.4184 -0.6911
vn -0.4316 -0.0018 -0.9020
vn -0.4390 -0.4577 -0.7732
vn 0.1916 0.1509 -0.9698
vn 0.5933 0.1139 -0.7969
vn -0.1646 0.1309 -0.9776
vn 0.4743 0.1164 -0.8727
vn 0.2365 -0.1546 -0.9593
vn 0.4815 0.2149 -0.8497
vn 0.8520 0.5162 0.0874
vn 0.8503 0.5212 -0.0734
vn 0.7115 0.5872 0.3859
vn 0.8118 0.0484 0.5819
vn 0.8495 0.5150 -0.1145
vn 0.7444 0.2324 0.6260
vn 0.6699 0.7182 -0.1880
vn 0.4937 0.8691 -0.0300
vn 0.8740 0.4625 -0.1489
vn 0.3766 0.5279 0.7613
vn 0.5067 0.4772 0.7180
vn 0.3816 0.8206 0.4254
vn 0.7911 0.6065 0.0797
vn 0.8223 0.5662 -0.0570
vn 0.7797 0.6214 0.0772
vn 0.8798 0.0940 0.4660
vn 0.9391 0.2635 0.2208
vn 0.7989 0.6013 -0.0133
vn 0.7416 0.3726 -0.5579
vn 0.8153 0.4937 -0.3027
vn 0.9258 0.3446 -0.1553
vn 0.7434 0.6588 0.1151
vn 0.8322 0.5544 0.0104
vn 0.8437 0.5310 0.0789
vn 0.7873 0.3049 -0.5359
vn 0.8652 0.2163 -0.4524
vn 0.9004 0.3228 -0.2917
vn 0.7301 0.3573 -0.5825
vn 0.6399 0.3252 -0.6963
vn 0.7810 0.3821 -0.4940
vn 0.5115 0.2978 -0.8060
vn 0.5485 0.6307 -0.5489
vn 0.7263 0.1109 -0.6784
vn 0.6483 0.7056 0.2862
vn 0.8872 0.4452 -0.1208
vn 0.6010 0.7988 0.0248
vn -0.8861 0.3849 0.2582
vn -0.6523 0.4581 0.6039
vn -0.8942 0.4426 0.0669
vn -0.7766 0.2811 0.5638
vn -0.7235 0.3248 0.6092
vn -0.8460 0.5060 0.1680
vn -0.4264 0.5485 0.7192
vn -0.2928 0.7842 0.5471
vn -0.5859 0.4244 0.6904
vn -0.5015 0.7943 -0.3429
vn -0.8941 0.4286 -0.1303
vn -0.2762 0.9611 -0.0022
vn -0.7346 0.6780 0.0251
vn -0.7051 0.6810 -0.1975
vn -0.6696 0.6694 -0.3218
vn -0.9546 0.0798 0.2871
vn -0.8158 0.5766 0.0443
vn -0.9710 0.0314 0.2369
vn -0.7116 0.6448 -0.2790
vn -0.8073 0.5753 -0.1320
vn -0.8115 0.5223 -0.2620
vn -0.7185 0.0376 -0.6946
vn -0.8819 0.1331 -0.4523
vn -0.7674 0.6374 -0.0693
vn -0.9314 0.3421 -0.1240
vn -0.9340 0.3461 0.0881
vn -0.7784 0.4127 -0.4730
vn -0.7892 -0.0427 -0.6126
vn -0.8472 0.5297 0.0404
vn -0.7680 0.2187 -0.6020
vn -0.7032 0.5860 0.4026
vn -0.6072 0.7842 0.1278
vn -0.9263 0.3137 0.2088
vn -0.2927 0.3810 -0.8770
vn -0.5592 0.3189 -0.7652
vn -0.4609 0.6905 -0.5575
s 0
f 64//1 65//1 63//1 69//1
f 66//2 67//2 63//2 65//2
f 68//3 69//3 63//3 67//3
f 1//4 9//4 64//4 12//4
f 9//5 10//5 65//5 64//5
f 12//6 64//6 69//6 13//6
f 2//7 30//7 66//7 11//7
f 30//8 31//8 67//8 66//8
f 11//9 66//9 65//9 10//9
f 3//10 14//10 68//10 32//10
f 14//11 13//11 69//11 68//11
f 32//12 68//12 67//12 31//12
f 71//13 72//13 70//13 76//13
f 73//14 74//14 70//14 72//14
f 75//15 76//15 70//15 74//15
f 1//16 27//16 71//16 9//16
f 27//17 28//17 72//17 71//17
f 9//18 71//18 76//18 10//18
f 8//19 47//19 73//19 29//19
f 47//20 46//20 74//20 73//20
f 29//21 73//21 72//21 28//21
f 2//22 11//22 75//22 45//22
f 11//23 10//23 76//23 75//23
f 45//24 75//24 74//24 46//24
f 78//25 79//25 77//25 83//25
f 80//26 81//26 77//26 79//26
f 82//27 83//27 77//27 81//27
f 4//28 57//28 78//28 17//28
f 57//29 58//29 79//29 78//29
f 17//30 78//30 83//30 16//30
f 8//31 29//31 80//31 59//31
f 29//32 28//32 81//32 80//32
f 59//33 80//33 79//33 58//33
f 1//34 15//34 82//34 27//34
f 15//35 16//35 83//35 82//35
f 27//36 82//36 81//36 28//36
f 85//37 86//37 84//37 90//37
f 87//38 88//38 84//38 86//38
f 89//39 90//39 84//39 88//39
f 4//40 18//40 85//40 57//40
f 18//41 19//41 86//41 85//41
f 57//42 85//42 90//42 58//42
f 5//43 33//43 87//43 20//43
f 33//44 34//44 88//44 87//44
f 20//45 87//45 86//45 19//45
f 8//46 59//46 89//46 35//46
f 59//47 58//47 90//47 89//47
f 35//48 89//48 88//48 34//48
f 92//49 93//49 91//49 97//49
f 94//50 95//50 91//50 93//50
f 96//51 97//51 91//51 95//51
f 2//52 45//52 92//52 36//52
f 45//53 46//53 93//53 92//53
f 36//54 92//54 97//54 37//54
f 8//55 35//55 94//55 47//55
f 35//56 34//56 95//56 94//56
f 47//57 94//57 93//57 46//57
f 5//58 38//58 96//58 33//58
f 38//59 37//59 97//59 96//59
f 33//60 96//60 95//60 34//60
f 99//61 100//61 98//61 104//61
f 101//62 102//62 98//62 100//62
f 103//63 104//63 98//63 102//63
f 4//64 21//64 99//64 18//64
f 21//65 22//65 100//65 99//65
f 18//66 99//66 104//66 19//66
f 6//67 56//67 101//67 23//67
f 56//68 55//68 102//68 101//68
f 23//69 101//69 100//69 22//69
f 5//70 20//70 103//70 54//70
f 20//71 19//71 104//71 103//71
f 54//72 103//72 102//72 55//72
f 106//73 107//73 105//73 111//73
f 108//74 109//74 105//74 107//74
f 110//75 111//75 105//75 109//75
f 2//76 24//76 106//76 30//76
f 24//77 25//77 107//77 106//77
f 30//78 106//78 111//78 31//78
f 7//79 50//79 108//79 26//79
f 50//80 49//80 109//80 108//80
f 26//81 108//81 107//81 25//81
f 3//82 32//82 110//82 48//82
f 32//83 31//83 111//83 110//83
f 48//84 110//84 109//84 49//84
f 113//85 114//85 112//85 118//85
f 115//86 116//86 112//86 114//86
f 117//87 118//87 112//87 116//87
f 2//88 36//88 113//88 24//88
f 36//89 37//89 114//89 113//89
f 24//90 113//90 118//90 25//90
f 5//91 60//91 115//91 38//91
f 60//92 61//92 116//92 115//92
f 38//93 115//93 114//93 37//93
f 7//94 26//94 117//94 62//94
f 26//95 25//95 118//95 117//95
f 62//96 117//96 116//96 61//96
f 120//97 121//97 119//97 125//97
f 122//98 123//98 119//98 121//98
f 124//99 125//99 119//99 123//99
f 5//100 54//100 120//100 60//100
f 54//101 55//101 121//101 120//101
f 60//102 120//102 125//102 61//102
f 6//103 42//103 122//103 56//103
f 42//104 43//104 123//104 122//104
f 56//105 122//105 121//105 55//105
f 7//106 62//106 124//106 44//106
f 62//107 61//107 125//107 124//107
f 44//108 124//108 123//108 43//108
f 127//109 128//109 126//109 132//109
f 129//110 130//110 126//110 128//110
f 131//111 132//111 126//111 130//111
f 1//112 12//112 127//112 39//112
f 12//113 13//113 128//113 127//113
f 39//114 127//114 132//114 40//114
f 3//115 48//115 129//115 14//115
f 48//116 49//116 130//116 129//116
f 14//117 129//117 128//117 13//117
f 7//118 41//118 131//118 50//118
f 41//119 40//119 132//119 131//119
f 50//120 131//120 130//120 49//120
f 134//121 135//121 133//121 139//121
f 136//122 137//122 133//122 135//122
f 138//123 139//123 133//123 137//123
f 1//124 39//124 134//124 15//124
f 39//125 40//125 135//125 134//125
f 15//126 134//126 139//126 16//126
f 7//127 53//127 136//127 41//127
f 53//128 52//128 137//128 136//128
f 41//129 136//129 135//129 40//129
f 4//130 17//130 138//130 51//130
f 17//131 16//131 139//131 138//131
f 51//132 138//132 137//132 52//132
f 141//133 142//133 140//133 146//133
f 143//134 144//134 140//134 142//134
f 145//135 146//135 140//135 144//135
f 4//136 51//136 141//136 21//136
f 51//137 52//137 142//137 141//137
f 21//138 141//138 146//138 22//138
f 7//139 44//139 143//139 53//139
f 44//140 43//140 144//140 143//140
f 53//141 143//141 142//141 52//141
f 6//142 23//142 145//142 42//142
f 23//143 22//143 146//143 145//143
f 42//144 145//144 144//144 43//144
